<svg width="60.000000" height="60.000000" viewBox="0 0 60 60" fill="none" xmlns="http://www.w3.org/2000/svg" xmlns:xlink="http://www.w3.org/1999/xlink">
	<defs>
		<filter id="filter_4480_5486_dd" x="0.000000" y="0.000000" width="60.000000" height="60.000000" filterUnits="userSpaceOnUse" color-interpolation-filters="sRGB">
			<feFlood flood-opacity="0" result="BackgroundImageFix"/>
			<feBlend mode="normal" in="SourceGraphic" in2="BackgroundImageFix" result="shape"/>
			<feColorMatrix in="SourceAlpha" type="matrix" values="0 0 0 0 0 0 0 0 0 0 0 0 0 0 0 0 0 0 127 0" result="hardAlpha"/>
			<feOffset dx="0" dy="4"/>
			<feGaussianBlur stdDeviation="1.33333"/>
			<feComposite in2="hardAlpha" operator="arithmetic" k2="-1" k3="1"/>
			<feColorMatrix type="matrix" values="0 0 0 0 0 0 0 0 0 0 0 0 0 0 0 0 0 0 0.25 0"/>
			<feBlend mode="normal" in2="shape" result="effect_innerShadow_1"/>
		</filter>
		<linearGradient x1="-2.502962" y1="46.874989" x2="30.000000" y2="27.352932" id="paint_linear_3_1_0" gradientUnits="userSpaceOnUse">
			<stop stop-color="#7F39A9"/>
			<stop offset="0.440625" stop-color="#B0346B"/>
			<stop offset="1.000000" stop-color="#DD2F30"/>
		</linearGradient>
	</defs>
	<g filter="url(#filter_4480_5486_dd)">
		<rect id="DevToLogo" rx="0.000000" width="59.000000" height="59.000000" transform="translate(0.500000 0.500000)" fill="#FFFFFF" fill-opacity="0"/>
		<path id="Vector" d="M18.75 28.12L18.75 31.87C18.75 32.86 18.35 33.82 17.65 34.52C16.94 35.22 15.99 35.62 15 35.62L15 24.37C15.99 24.37 16.94 24.77 17.65 25.47C18.35 26.17 18.75 27.13 18.75 28.12ZM58.12 16.87L58.12 43.12C58.12 44.11 57.72 45.07 57.02 45.77C56.32 46.47 55.36 46.87 54.37 46.87L5.62 46.87C4.63 46.87 3.67 46.47 2.97 45.77C2.27 45.07 1.87 44.11 1.87 43.12L1.87 16.87C1.87 15.88 2.27 14.92 2.97 14.22C3.67 13.52 4.63 13.12 5.62 13.12L54.37 13.12C55.36 13.12 56.32 13.52 57.02 14.22C57.72 14.92 58.12 15.88 58.12 16.87ZM22.5 28.12C22.5 26.13 21.71 24.22 20.3 22.82C18.89 21.41 16.98 20.62 15 20.62L13.12 20.62C12.62 20.62 12.15 20.82 11.79 21.17C11.44 21.52 11.25 22 11.25 22.5L11.25 37.5C11.25 37.99 11.44 38.47 11.79 38.82C12.15 39.17 12.62 39.37 13.12 39.37L15 39.37C16.98 39.37 18.89 38.58 20.3 37.17C21.71 35.77 22.5 33.86 22.5 31.87L22.5 28.12ZM30 28.12L30 24.37L33.75 24.37C34.24 24.37 34.72 24.17 35.07 23.82C35.42 23.47 35.62 22.99 35.62 22.5C35.62 22 35.42 21.52 35.07 21.17C34.72 20.82 34.24 20.62 33.75 20.62L28.12 20.62C27.62 20.62 27.15 20.82 26.79 21.17C26.44 21.52 26.25 22 26.25 22.5L26.25 37.5C26.25 37.99 26.44 38.47 26.79 38.82C27.15 39.17 27.62 39.37 28.12 39.37L33.75 39.37C34.24 39.37 34.72 39.17 35.07 38.82C35.42 38.47 35.62 37.99 35.62 37.5C35.62 37 35.42 36.52 35.07 36.17C34.72 35.82 34.24 35.62 33.75 35.62L30 35.62L30 31.87L31.87 31.87C32.37 31.87 32.84 31.67 33.2 31.32C33.55 30.97 33.75 30.49 33.75 30C33.75 29.5 33.55 29.02 33.2 28.67C32.84 28.32 32.37 28.12 31.87 28.12L30 28.12ZM49.25 20.69C48.78 20.56 48.26 20.62 47.83 20.86C47.39 21.1 47.08 21.51 46.94 21.99L44.53 30.57L42.11 21.99C41.98 21.51 41.66 21.11 41.22 20.87C40.79 20.62 40.28 20.56 39.8 20.7C39.32 20.83 38.92 21.15 38.68 21.58C38.43 22.01 38.37 22.53 38.5 23L42.72 38C42.83 38.4 43.07 38.74 43.39 38.99C43.72 39.24 44.12 39.37 44.53 39.37C44.93 39.37 45.33 39.24 45.66 38.99C45.98 38.74 46.22 38.4 46.33 38L50.55 23C50.68 22.53 50.62 22.01 50.38 21.58C50.14 21.14 49.73 20.83 49.25 20.69Z" fill="url(#paint_linear_3_1_0)" fill-opacity="1.000000" fill-rule="nonzero"/>
	</g>
</svg>
