<svg width="48.750000" height="46.875000" viewBox="0 0 48.75 46.875" fill="none" xmlns="http://www.w3.org/2000/svg" xmlns:xlink="http://www.w3.org/1999/xlink">
	<defs>
		<linearGradient x1="-3.794243" y1="46.874981" x2="24.374996" y2="19.761024" id="paint_linear_3_29_0" gradientUnits="userSpaceOnUse">
			<stop stop-color="#7F39A9"/>
			<stop offset="0.440625" stop-color="#B0346B"/>
			<stop offset="1.000000" stop-color="#DD2F30"/>
		</linearGradient>
	</defs>
	<path id="Vector" d="M45 11.25L35.62 11.25C35.62 8.26 34.43 5.4 32.33 3.29C30.21 1.18 27.35 0 24.37 0C21.39 0 18.53 1.18 16.41 3.29C14.31 5.4 13.12 8.26 13.12 11.25L3.75 11.25C2.75 11.25 1.8 11.64 1.09 12.34C0.39 13.05 0 14 0 15L0 43.12C0 44.11 0.39 45.07 1.09 45.77C1.8 46.47 2.75 46.87 3.75 46.87L45 46.87C45.99 46.87 46.94 46.47 47.65 45.77C48.35 45.07 48.75 44.11 48.75 43.12L48.75 15C48.75 14 48.35 13.05 47.65 12.34C46.94 11.64 45.99 11.25 45 11.25ZM24.37 3.75C26.36 3.75 28.27 4.54 29.67 5.94C31.08 7.35 31.87 9.26 31.87 11.25L16.87 11.25C16.87 9.26 17.66 7.35 19.07 5.94C20.47 4.54 22.38 3.75 24.37 3.75Z" fill="url(#paint_linear_3_29_0)" fill-opacity="1.000000" fill-rule="nonzero"/>
</svg>
