<svg width="23.272461" height="24.000000" viewBox="0 0 23.2725 24" fill="none" xmlns="http://www.w3.org/2000/svg" xmlns:xlink="http://www.w3.org/1999/xlink">
	<defs>
		<clipPath id="clip4480_5821">
			<rect id="logos:laravel" rx="0.000000" width="22.272728" height="23.000000" transform="translate(0.500000 0.500000)" fill="white" fill-opacity="0"/>
		</clipPath>
	</defs>
	<rect id="logos:laravel" rx="0.000000" width="22.272728" height="23.000000" transform="translate(0.500000 0.500000)" fill="#FFFFFF" fill-opacity="0"/>
	<g clip-path="url(#clip4480_5821)">
		<path id="Vector" d="M23.25 5.41C23.26 5.45 23.27 5.48 23.27 5.51L23.27 10.66C23.27 10.79 23.2 10.91 23.08 10.98L18.76 13.47L18.76 18.39C18.76 18.46 18.75 18.52 18.71 18.58C18.68 18.64 18.63 18.68 18.58 18.72L9.57 23.9C9.54 23.91 9.52 23.92 9.5 23.93C9.49 23.93 9.48 23.94 9.48 23.94C9.41 23.96 9.35 23.96 9.28 23.94C9.27 23.94 9.26 23.93 9.25 23.93C9.23 23.92 9.21 23.91 9.19 23.9L0.18 18.72C0.13 18.68 0.08 18.64 0.05 18.58C0.01 18.52 0 18.46 0 18.39L0 2.96C0 2.93 0 2.9 0.01 2.87C0.01 2.85 0.02 2.84 0.02 2.83C0.03 2.81 0.04 2.79 0.04 2.78C0.05 2.76 0.06 2.75 0.07 2.74C0.08 2.73 0.09 2.71 0.1 2.7C0.12 2.69 0.13 2.68 0.14 2.67C0.16 2.66 0.17 2.65 0.18 2.64L0.18 2.64L4.69 0.04C4.74 0.01 4.81 0 4.87 0C4.94 0 5 0.01 5.06 0.04L9.57 2.64L9.57 2.64C9.58 2.65 9.59 2.66 9.61 2.67C9.62 2.68 9.63 2.69 9.65 2.7C9.66 2.71 9.67 2.73 9.68 2.74C9.69 2.75 9.7 2.76 9.7 2.78C9.71 2.79 9.72 2.81 9.73 2.83C9.73 2.84 9.74 2.85 9.74 2.87C9.75 2.9 9.75 2.93 9.75 2.96L9.75 12.6L13.51 10.44L13.51 5.51C13.51 5.48 13.51 5.45 13.52 5.41C13.52 5.4 13.53 5.39 13.53 5.38C13.54 5.36 13.55 5.34 13.56 5.33C13.57 5.31 13.58 5.3 13.58 5.29C13.6 5.28 13.6 5.26 13.62 5.25C13.63 5.24 13.64 5.23 13.65 5.22C13.67 5.21 13.68 5.2 13.7 5.19L13.7 5.19L18.2 2.59C18.26 2.56 18.32 2.54 18.39 2.54C18.45 2.54 18.52 2.56 18.58 2.59L23.08 5.19C23.1 5.2 23.11 5.21 23.12 5.22C23.13 5.23 23.15 5.24 23.16 5.25C23.17 5.26 23.18 5.28 23.19 5.29C23.2 5.3 23.21 5.31 23.22 5.33C23.23 5.34 23.23 5.36 23.24 5.38C23.25 5.39 23.25 5.4 23.25 5.41ZM22.52 10.44L22.52 6.16L20.94 7.07L18.76 8.32L18.76 12.6L22.52 10.44L22.52 10.44ZM18.01 18.17L18.01 13.9L15.87 15.12L9.75 18.61L9.75 22.93L18.01 18.17L18.01 18.17ZM0.75 3.61L0.75 18.17L9 22.93L9 18.61L4.69 16.17L4.69 16.17L4.69 16.17C4.67 16.16 4.66 16.15 4.65 16.14C4.63 16.13 4.62 16.12 4.61 16.11L4.61 16.11C4.6 16.1 4.59 16.08 4.58 16.07C4.57 16.05 4.56 16.04 4.55 16.03L4.55 16.03C4.54 16.02 4.54 16 4.53 15.98C4.52 15.97 4.52 15.96 4.51 15.94L4.51 15.94C4.51 15.92 4.51 15.9 4.5 15.89C4.5 15.87 4.5 15.86 4.5 15.84L4.5 5.77L2.32 4.52L0.75 3.61L0.75 3.61ZM4.87 0.8L1.12 2.96L4.87 5.12L8.63 2.96L4.87 0.8L4.87 0.8ZM6.83 14.29L9 13.03L9 3.61L7.43 4.52L5.25 5.77L5.25 15.19L6.83 14.29ZM18.39 3.35L14.64 5.51L18.39 7.67L22.14 5.51L18.39 3.35ZM18.01 8.32L15.83 7.07L14.26 6.16L14.26 10.44L16.44 11.69L18.01 12.6L18.01 8.32L18.01 8.32ZM9.38 17.96L14.88 14.82L17.63 13.25L13.88 11.09L9.57 13.57L5.63 15.84L9.38 17.96Z" fill="#FF2D20" fill-opacity="1.000000" fill-rule="nonzero"/>
	</g>
</svg>
