<svg width="36.001953" height="31.999023" viewBox="0 0 36.002 31.999" fill="none" xmlns="http://www.w3.org/2000/svg" xmlns:xlink="http://www.w3.org/1999/xlink">
	<defs>
		<linearGradient x1="30.438992" y1="24.185947" x2="34.734924" y2="19.800724" id="paint_linear_4480_5411_0" gradientUnits="userSpaceOnUse">
			<stop stop-color="#7F39A9"/>
			<stop offset="1.000000" stop-color="#DD2F30"/>
		</linearGradient>
		<linearGradient x1="24.194822" y1="30.845108" x2="28.490866" y2="26.459984" id="paint_linear_4480_5416_0" gradientUnits="userSpaceOnUse">
			<stop stop-color="#7F39A9"/>
			<stop offset="1.000000" stop-color="#DD2F30"/>
		</linearGradient>
		<linearGradient x1="21.903099" y1="35.213791" x2="38.819244" y2="18.178555" id="paint_linear_4480_5421_0" gradientUnits="userSpaceOnUse">
			<stop stop-color="#7F39A9"/>
			<stop offset="1.000000" stop-color="#DD2F30"/>
		</linearGradient>
		<linearGradient x1="-8.236675" y1="36.405048" x2="36.743359" y2="-5.991390" id="paint_linear_4480_5426_0" gradientUnits="userSpaceOnUse">
			<stop stop-color="#7F39A9"/>
			<stop offset="1.000000" stop-color="#DD2F30"/>
		</linearGradient>
		<linearGradient x1="-14.567814" y1="34.563751" x2="41.920414" y2="-9.149780" id="paint_linear_4480_5431_0" gradientUnits="userSpaceOnUse">
			<stop stop-color="#7F39A9"/>
			<stop offset="1.000000" stop-color="#DD2F30"/>
		</linearGradient>
		<linearGradient x1="-5.178101" y1="33.674782" x2="38.363068" y2="-1.622822" id="paint_linear_4480_5436_0" gradientUnits="userSpaceOnUse">
			<stop stop-color="#7F39A9"/>
			<stop offset="1.000000" stop-color="#DD2F30"/>
		</linearGradient>
		<linearGradient x1="28.587805" y1="29.273186" x2="33.260952" y2="24.482601" id="paint_linear_4480_5441_0" gradientUnits="userSpaceOnUse">
			<stop stop-color="#7F39A9"/>
			<stop offset="1.000000" stop-color="#DD2F30"/>
		</linearGradient>
	</defs>
	<path id="path30" d="M34.01 21.73L33.06 20.71L31.54 22.34L32.5 23.35L34.01 21.73Z" fill="url(#paint_linear_4480_5411_0)" fill-opacity="1.000000" fill-rule="nonzero"/>
	<path id="path50" d="M27.77 28.39L26.82 27.37L25.3 29L26.26 30.01L27.77 28.39Z" fill="url(#paint_linear_4480_5416_0)" fill-opacity="1.000000" fill-rule="nonzero"/>
	<path id="path70" d="M34.09 29.95L27.55 28.63L26.26 30.01L36 31.99L34.02 21.74L32.74 23.06L34.09 29.95Z" fill="url(#paint_linear_4480_5421_0)" fill-opacity="1.000000" fill-rule="nonzero"/>
	<path id="path90" d="M3.36 2.88L3.36 25.95L7.39 25.95L7.39 20.18L20.1 20.18L27.77 28.4L28.67 27.44L27.77 26.42L20.64 18.74L6.05 18.74L6.05 24.51L4.7 24.51L4.7 4.32L25.21 4.32C25.79 4.32 26.27 4.35 26.62 4.41C26.98 4.47 27.26 4.6 27.45 4.81C27.64 5.01 27.76 5.3 27.82 5.69C27.87 6.07 27.9 6.58 27.9 7.2L27.9 12.97C27.9 13.6 27.87 14.1 27.82 14.49C27.76 14.87 27.64 15.16 27.45 15.37C27.26 15.57 26.98 15.71 26.62 15.76C26.27 15.83 25.79 15.85 25.21 15.85L22.52 12.97L10.55 12.97C10.28 12.49 9.9 12.25 9.41 12.25C9.03 12.25 8.71 12.39 8.45 12.66C8.19 12.94 8.07 13.28 8.07 13.69C8.07 14.1 8.19 14.44 8.45 14.72C8.71 15 9.03 15.13 9.41 15.13C9.9 15.13 10.28 14.89 10.55 14.41L21.95 14.41L24.64 17.3L25.21 17.3C26.04 17.3 26.72 17.24 27.25 17.13C27.77 17.03 28.19 16.81 28.49 16.49C28.79 16.16 28.99 15.72 29.09 15.17C29.2 14.62 29.25 13.88 29.25 12.97L29.25 7.2C29.25 6.31 29.2 5.59 29.09 5.02C28.99 4.46 28.79 4.01 28.49 3.69C28.19 3.36 27.77 3.15 27.25 3.04C26.72 2.93 26.04 2.88 25.21 2.88L3.36 2.88Z" fill="url(#paint_linear_4480_5426_0)" fill-opacity="1.000000" fill-rule="nonzero"/>
	<path id="path110" d="M0.67 0L0.67 23.64C0.22 23.93 0 24.34 0 24.87C0 25.28 0.12 25.62 0.38 25.9C0.64 26.17 0.96 26.31 1.34 26.31C1.72 26.31 2.04 26.17 2.3 25.9C2.56 25.62 2.69 25.28 2.69 24.87C2.69 24.34 2.46 23.93 2.01 23.64L2.01 1.44L25.21 1.44C26.31 1.44 27.21 1.51 27.9 1.67C28.6 1.83 29.14 2.12 29.55 2.55C29.95 2.99 30.23 3.58 30.37 4.32C30.52 5.07 30.59 6.03 30.59 7.2L30.59 12.97C30.59 14.05 30.53 14.95 30.41 15.68C30.28 16.4 30.06 16.97 29.73 17.41C29.41 17.84 28.96 18.16 28.39 18.36C27.82 18.57 27.09 18.69 26.22 18.74L30.59 23.39L31.57 24.35L32.51 23.35L29.11 19.71C29.65 19.5 30.1 19.21 30.47 18.87C30.84 18.52 31.13 18.07 31.35 17.53C31.56 16.99 31.71 16.34 31.8 15.59C31.89 14.83 31.94 13.96 31.94 12.97L31.94 7.2C31.94 5.76 31.83 4.58 31.63 3.65C31.43 2.73 31.08 2 30.57 1.45C30.07 0.91 29.38 0.54 28.52 0.32C27.66 0.1 26.56 0 25.21 0L0.67 0Z" fill="url(#paint_linear_4480_5431_0)" fill-opacity="1.000000" fill-rule="nonzero"/>
	<path id="path130" d="M6.05 5.76L6.05 17.3L21.21 17.3L30.23 27.01L31.11 26L21.75 15.85L7.39 15.85L7.39 7.2L23.87 7.2C24.49 7.2 24.87 7.27 25.01 7.42C25.14 7.56 25.21 7.97 25.21 8.64L25.21 12.1C24.76 12.39 24.54 12.8 24.54 13.33C24.54 13.74 24.67 14.08 24.92 14.36C25.18 14.63 25.5 14.77 25.88 14.77C26.26 14.77 26.58 14.63 26.84 14.36C27.1 14.08 27.23 13.74 27.23 13.33C27.23 12.8 27 12.39 26.55 12.1L26.55 7.2C26.55 6.24 26.11 5.76 25.21 5.76L6.05 5.76Z" fill="url(#paint_linear_4480_5436_0)" fill-opacity="1.000000" fill-rule="nonzero"/>
	<path id="path150" d="M30.7 25.55L29.82 26.56C29.8 26.63 29.79 26.75 29.79 26.92C29.79 27.33 29.92 27.67 30.17 27.95C30.43 28.23 30.75 28.36 31.13 28.36C31.51 28.36 31.83 28.23 32.09 27.95C32.35 27.67 32.48 27.33 32.48 26.92C32.48 26.51 32.35 26.17 32.09 25.89C31.83 25.62 31.51 25.48 31.13 25.48C31.02 25.48 30.87 25.5 30.7 25.55Z" fill="url(#paint_linear_4480_5441_0)" fill-opacity="1.000000" fill-rule="nonzero"/>
</svg>
