<svg width="19.506836" height="19.500000" viewBox="0 0 19.5068 19.5" fill="none" xmlns="http://www.w3.org/2000/svg" xmlns:xlink="http://www.w3.org/1999/xlink">
	<defs/>
	<path id="Vector" d="M17.25 19.5L17.12 19.5C2.39 18.65 0.29 6.21 0 2.42C-0.02 2.12 0.01 1.83 0.1 1.54C0.2 1.26 0.34 1 0.53 0.78C0.73 0.55 0.96 0.37 1.23 0.23C1.49 0.1 1.78 0.02 2.07 0L6.2 0C6.5 0 6.8 0.08 7.05 0.25C7.3 0.42 7.49 0.66 7.6 0.94L8.74 3.75C8.85 4.02 8.88 4.32 8.82 4.6C8.76 4.89 8.62 5.16 8.41 5.37L6.81 6.98C7.06 8.4 7.74 9.7 8.76 10.72C9.77 11.74 11.08 12.42 12.5 12.68L14.12 11.07C14.34 10.86 14.6 10.72 14.89 10.67C15.18 10.61 15.48 10.64 15.75 10.76L18.58 11.89C18.85 12 19.09 12.2 19.25 12.45C19.42 12.7 19.5 12.99 19.5 13.29L19.5 17.25C19.5 17.84 19.27 18.41 18.84 18.84C18.42 19.26 17.85 19.5 17.25 19.5ZM2.25 1.5C2.05 1.5 1.86 1.57 1.72 1.71C1.58 1.86 1.5 2.05 1.5 2.25L1.5 2.3C1.85 6.75 4.06 17.25 17.21 18C17.31 18 17.4 17.99 17.5 17.96C17.59 17.92 17.68 17.87 17.75 17.81C17.83 17.74 17.88 17.66 17.93 17.57C17.97 17.49 18 17.39 18 17.29L18 13.29L15.17 12.15L13.02 14.29L12.66 14.25C6.14 13.43 5.25 6.9 5.25 6.83L5.21 6.48L7.34 4.32L6.21 1.5L2.25 1.5Z" fill="#FFFFFF" fill-opacity="1.000000" fill-rule="nonzero"/>
</svg>
