<svg width="56.243164" height="41.261719" viewBox="0 0 56.2432 41.2617" fill="none" xmlns="http://www.w3.org/2000/svg" xmlns:xlink="http://www.w3.org/1999/xlink">
	<defs>
		<linearGradient x1="-4.377426" y1="41.261326" x2="28.121490" y2="17.394482" id="paint_linear_3_30_0" gradientUnits="userSpaceOnUse">
			<stop stop-color="#7F39A9"/>
			<stop offset="0.440625" stop-color="#B0346B"/>
			<stop offset="1.000000" stop-color="#DD2F30"/>
		</linearGradient>
	</defs>
	<path id="Vector" d="M13.14 23.4C13.15 23.52 13.13 23.65 13.09 23.77C13.04 23.89 12.97 24 12.89 24.09C12.8 24.18 12.69 24.26 12.58 24.31C12.46 24.36 12.33 24.38 12.21 24.38L1.87 24.38C1.44 24.38 1.03 24.24 0.7 23.98C0.37 23.71 0.13 23.35 0.04 22.94C-0.02 22.65 -0.02 22.36 0.05 22.08C0.11 21.8 0.24 21.54 0.42 21.31C2.07 19.12 4.27 17.39 6.79 16.3C5.68 15.29 4.83 14.03 4.31 12.62C3.79 11.22 3.62 9.71 3.8 8.22C3.98 6.74 4.52 5.32 5.37 4.08C6.21 2.84 7.34 1.83 8.66 1.12C9.98 0.41 11.45 0.02 12.95 0C14.44 -0.03 15.92 0.3 17.27 0.97C18.61 1.63 19.77 2.61 20.66 3.82C21.55 5.03 22.13 6.43 22.37 7.91C22.4 8.11 22.36 8.31 22.26 8.49C22.17 8.66 22.02 8.8 21.83 8.89C19.23 10.09 17.03 12.01 15.49 14.42C13.94 16.84 13.12 19.64 13.12 22.51C13.12 22.81 13.12 23.1 13.14 23.4ZM55.8 21.31C54.15 19.12 51.96 17.39 49.44 16.3C50.55 15.29 51.4 14.03 51.92 12.62C52.44 11.22 52.62 9.71 52.43 8.22C52.25 6.74 51.71 5.32 50.87 4.08C50.02 2.84 48.89 1.83 47.57 1.12C46.26 0.41 44.79 0.02 43.29 0C41.79 -0.03 40.31 0.3 38.97 0.97C37.62 1.63 36.46 2.61 35.57 3.82C34.69 5.03 34.1 6.43 33.87 7.91C33.84 8.11 33.87 8.31 33.97 8.49C34.07 8.66 34.22 8.8 34.4 8.89C37 10.09 39.2 12.01 40.75 14.42C42.29 16.84 43.11 19.64 43.12 22.51C43.12 22.81 43.12 23.1 43.09 23.4C43.08 23.52 43.1 23.65 43.15 23.77C43.19 23.89 43.26 24 43.35 24.09C43.43 24.18 43.54 24.26 43.66 24.31C43.77 24.36 43.9 24.38 44.03 24.38L54.37 24.38C54.79 24.38 55.2 24.24 55.53 23.98C55.86 23.71 56.1 23.35 56.19 22.94C56.25 22.65 56.25 22.36 56.19 22.08C56.12 21.8 55.99 21.54 55.81 21.31L55.8 21.31ZM34.94 31.43C36.81 30 38.18 28.02 38.86 25.77C39.55 23.52 39.51 21.11 38.76 18.89C38 16.66 36.57 14.72 34.66 13.35C32.75 11.98 30.45 11.25 28.1 11.25C25.75 11.25 23.46 11.98 21.55 13.35C19.63 14.72 18.2 16.66 17.45 18.89C16.69 21.11 16.65 23.52 17.34 25.77C18.02 28.02 19.39 30 21.26 31.43C17.95 32.86 15.18 35.32 13.37 38.44C13.2 38.73 13.12 39.05 13.12 39.38C13.12 39.71 13.2 40.03 13.37 40.32C13.53 40.6 13.77 40.84 14.05 41.01C14.34 41.17 14.66 41.26 14.99 41.26L41.24 41.26C41.57 41.26 41.89 41.17 42.18 41.01C42.46 40.84 42.7 40.6 42.87 40.32C43.03 40.03 43.12 39.71 43.12 39.38C43.12 39.05 43.03 38.73 42.87 38.44C41.05 35.32 38.28 32.86 34.96 31.43L34.94 31.43Z" fill="url(#paint_linear_3_30_0)" fill-opacity="1.000000" fill-rule="nonzero"/>
</svg>
