<svg width="29.538086" height="21.590820" viewBox="0 0 29.5381 21.5908" fill="none" xmlns="http://www.w3.org/2000/svg" xmlns:xlink="http://www.w3.org/1999/xlink">
	<defs>
		<linearGradient x1="1476.896484" y1="1707.904785" x2="1476.896484" y2="0.000000" id="paint_linear_4480_5824_0" gradientUnits="userSpaceOnUse">
			<stop stop-color="#04B6F0"/>
			<stop offset="1.000000" stop-color="#3ECAF0"/>
		</linearGradient>
	</defs>
	<path id="Vector" d="M19.53 19.45C19.53 20.63 18.59 21.59 17.43 21.59C16.26 21.59 15.31 20.63 15.31 19.45C15.31 18.26 16.26 17.3 17.43 17.3C18.6 17.3 19.53 18.26 19.53 19.45ZM7.81 17.3C6.65 17.3 5.71 18.27 5.71 19.45C5.71 20.63 6.65 21.59 7.81 21.59C8.98 21.59 9.93 20.63 9.93 19.45C9.93 18.26 8.98 17.3 7.81 17.3ZM21.28 4.65C7.33 4.65 3.78 4.04 0 0C1.58 2.42 2.45 6.97 17.21 6.75C32.6 6.52 23.21 10.79 20.48 15.61C29.1 7.79 35.22 4.65 21.28 4.65Z" fill="#000000" fill-opacity="1.000000" fill-rule="nonzero"/>
	<path id="Vector" d="M19.53 19.45C19.53 20.63 18.59 21.59 17.43 21.59C16.26 21.59 15.31 20.63 15.31 19.45C15.31 18.26 16.26 17.3 17.43 17.3C18.6 17.3 19.53 18.26 19.53 19.45ZM7.81 17.3C6.65 17.3 5.71 18.27 5.71 19.45C5.71 20.63 6.65 21.59 7.81 21.59C8.98 21.59 9.93 20.63 9.93 19.45C9.93 18.26 8.98 17.3 7.81 17.3ZM21.28 4.65C7.33 4.65 3.78 4.04 0 0C1.58 2.42 2.45 6.97 17.21 6.75C32.6 6.52 23.21 10.79 20.48 15.61C29.1 7.79 35.22 4.65 21.28 4.65Z" fill="url(#paint_linear_4480_5824_0)" fill-opacity="1.000000" fill-rule="nonzero"/>
</svg>
