<svg width="20.000000" height="20.000000" viewBox="0 0 20 20" fill="none" xmlns="http://www.w3.org/2000/svg" xmlns:xlink="http://www.w3.org/1999/xlink">
	<defs/>
	<path id="Vector" d="M10 0C4.49 0 0 4.49 0 10C0 15.5 4.49 20 10 20C15.5 20 20 15.5 20 10C20 4.49 15.5 0 10 0ZM1 10C1 8.7 1.29 7.45 1.79 6.33L6.08 18.08C3.08 16.62 1 13.55 1 10ZM10 18.99C9.12 18.99 8.26 18.86 7.45 18.62L10.16 10.78L12.91 18.34C12.94 18.38 12.96 18.44 12.98 18.46C12.04 18.8 11.04 18.99 10 18.99ZM11.24 5.78C11.78 5.75 12.26 5.69 12.26 5.69C12.75 5.62 12.7 4.91 12.21 4.95C12.21 4.95 10.75 5.05 9.8 5.05C8.92 5.05 7.44 4.95 7.44 4.95C6.95 4.92 6.9 5.66 7.38 5.7C7.38 5.7 7.84 5.75 8.33 5.79L9.73 9.62L7.75 15.53L4.49 5.78C5.03 5.75 5.51 5.7 5.51 5.7C6 5.63 5.95 4.92 5.45 4.95C5.45 4.95 4 5.07 3.05 5.07C2.88 5.07 2.69 5.07 2.48 5.05C4.09 2.62 6.86 1 10 1C12.33 1 14.46 1.9 16.07 3.37C16.03 3.37 15.99 3.36 15.95 3.36C15.07 3.36 14.44 4.12 14.44 4.95C14.44 5.7 14.87 6.33 15.32 7.07C15.66 7.66 16.05 8.44 16.05 9.54C16.05 10.32 15.75 11.21 15.37 12.46L14.48 15.46L11.24 5.78ZM17.88 5.69C19.01 7.74 19.28 10.15 18.66 12.41C18.03 14.67 16.54 16.59 14.51 17.76L17.26 9.83C17.78 8.54 17.95 7.51 17.95 6.61C17.95 6.28 17.92 5.96 17.88 5.69Z" fill="#00A0D2" fill-opacity="1.000000" fill-rule="nonzero"/>
</svg>
